<?xml version="1.0" standalone="no"?>
<!DOCTYPE svg PUBLIC "-//W3C//DTD SVG 20010904//EN"
 "http://www.w3.org/TR/2001/REC-SVG-20010904/DTD/svg10.dtd">
<svg version="1.0" xmlns="http://www.w3.org/2000/svg"
 width="260.000000pt" height="260.000000pt" viewBox="0 0 260.000000 260.000000"
 preserveAspectRatio="xMidYMid meet">
<metadata>
Created by potrace 1.14, written by Peter Selinger 2001-2017
</metadata>
<g transform="translate(0.000000,260.000000) scale(0.100000,-0.100000)"
fill="#000000" stroke="none">
<path d="M1509 1983 c0 -10 -2 -25 -4 -33 -6 -26 -13 -72 -35 -205 -11 -71
-23 -143 -26 -160 -11 -68 -14 -85 -34 -210 -12 -71 -23 -143 -26 -160 -3 -16
-7 -37 -9 -45 -2 -8 -6 -37 -9 -63 -3 -27 -8 -52 -10 -55 -2 -4 -6 -29 -9 -57
-5 -46 -60 -384 -73 -448 l-6 -28 233 1 c259 1 306 7 396 49 109 52 179 131
224 257 33 89 33 250 0 321 -13 29 -42 70 -65 91 l-41 38 42 32 c101 76 137
163 137 337 1 134 -12 178 -73 248 -78 88 -142 105 -412 107 -185 1 -199 -1
-200 -17z m386 -239 c25 -27 27 -35 29 -109 3 -90 -41 -193 -94 -220 -16 -8
-54 -15 -85 -15 l-56 0 7 38 c4 20 8 46 10 57 2 11 6 31 8 45 3 14 8 43 11 65
3 22 10 68 16 103 l11 62 60 0 c51 0 62 -4 83 -26z m-96 -592 c53 -27 74 -62
76 -129 4 -170 -85 -273 -238 -273 l-49 0 6 61 c3 34 8 64 10 68 2 3 7 29 10
56 4 28 9 66 13 85 6 37 7 42 18 108 l7 42 56 0 c35 0 71 -7 91 -18z"/>
<path d="M805 1553 c-17 -8 -47 -32 -68 -52 l-38 -36 6 30 c4 17 9 38 12 48 4
16 -7 17 -135 17 l-139 0 -8 -42 c-4 -24 -9 -54 -11 -68 -2 -14 -30 -185 -63
-380 -33 -195 -62 -373 -65 -395 -11 -70 -16 -99 -22 -128 l-6 -27 141 0 c139
0 141 0 142 23 0 12 2 29 4 37 2 8 6 33 10 55 3 22 8 51 11 65 8 50 13 78 44
270 17 107 33 207 36 223 14 87 61 143 127 154 26 4 40 0 63 -20 26 -23 29
-31 31 -94 1 -37 -11 -142 -27 -233 -16 -91 -31 -178 -33 -195 -13 -82 -38
-233 -43 -257 l-4 -28 138 0 138 0 38 223 c21 122 40 236 42 252 3 17 10 68
18 115 12 81 13 197 2 250 -19 85 -80 161 -157 193 -46 19 -146 19 -184 0z"/>
</g>
</svg>
